<svg xmlns="http://www.w3.org/2000/svg" width="1800" height="1200"
viewBox="0 0 1800 1200" fill="none">
  <g><line x1="170" y1="680" x2="355" y2="545" stroke="#B8874A" stroke-opacity="0.36" stroke-width="1.70" stroke-linecap="round"/><line x1="355" y1="545" x2="300" y2="310" stroke="#B8874A" stroke-opacity="0.26" stroke-width="1.20" stroke-linecap="round"/><line x1="355" y1="545" x2="420" y2="770" stroke="#B8874A" stroke-opacity="0.22" stroke-width="1.00" stroke-linecap="round"/><line x1="300" y1="310" x2="540" y2="520" stroke="#B8874A" stroke-opacity="0.31" stroke-width="1.50" stroke-linecap="round"/><line x1="420" y1="770" x2="540" y2="520" stroke="#B8874A" stroke-opacity="0.34" stroke-width="1.60" stroke-linecap="round"/><line x1="540" y1="520" x2="690" y2="250" stroke="#B8874A" stroke-opacity="0.24" stroke-width="1.00" stroke-linecap="round"/><line x1="540" y1="520" x2="760" y2="590" stroke="#B8874A" stroke-opacity="0.36" stroke-width="1.70" stroke-linecap="round"/><line x1="690" y1="250" x2="920" y2="430" stroke="#B8874A" stroke-opacity="0.30" stroke-width="1.40" stroke-linecap="round"/><line x1="800" y1="875" x2="760" y2="590" stroke="#B8874A" stroke-opacity="0.28" stroke-width="1.20" stroke-linecap="round"/><line x1="800" y1="875" x2="610" y2="840" stroke="#B8874A" stroke-opacity="0.18" stroke-width="1.00" stroke-linecap="round"/><line x1="920" y1="430" x2="1040" y2="655" stroke="#B8874A" stroke-opacity="0.38" stroke-width="1.70" stroke-linecap="round"/><line x1="920" y1="430" x2="1170" y2="285" stroke="#B8874A" stroke-opacity="0.24" stroke-width="1.00" stroke-linecap="round"/><line x1="1040" y1="655" x2="1280" y2="525" stroke="#B8874A" stroke-opacity="0.30" stroke-width="1.40" stroke-linecap="round"/><line x1="1040" y1="655" x2="1010" y2="890" stroke="#B8874A" stroke-opacity="0.23" stroke-width="1.00" stroke-linecap="round"/><line x1="1170" y1="285" x2="1280" y2="525" stroke="#B8874A" stroke-opacity="0.37" stroke-width="1.70" stroke-linecap="round"/><line x1="1280" y1="525" x2="1405" y2="820" stroke="#B8874A" stroke-opacity="0.24" stroke-width="1.00" stroke-linecap="round"/><line x1="1280" y1="525" x2="1530" y2="365" stroke="#B8874A" stroke-opacity="0.30" stroke-width="1.40" stroke-linecap="round"/><line x1="1280" y1="525" x2="1340" y2="600" stroke="#B8874A" stroke-opacity="0.39" stroke-width="1.80" stroke-linecap="round"/><line x1="1405" y1="820" x2="1645" y2="655" stroke="#B8874A" stroke-opacity="0.32" stroke-width="1.50" stroke-linecap="round"/><line x1="1530" y1="365" x2="1645" y2="655" stroke="#B8874A" stroke-opacity="0.33" stroke-width="1.60" stroke-linecap="round"/><line x1="1645" y1="655" x2="1340" y2="600" stroke="#B8874A" stroke-opacity="0.22" stroke-width="1.00" stroke-linecap="round"/><line x1="1010" y1="890" x2="1340" y2="600" stroke="#B8874A" stroke-opacity="0.26" stroke-width="1.20" stroke-linecap="round"/><line x1="610" y1="840" x2="760" y2="590" stroke="#B8874A" stroke-opacity="0.31" stroke-width="1.40" stroke-linecap="round"/><line x1="355" y1="545" x2="760" y2="590" stroke="#B8874A" stroke-opacity="0.20" stroke-width="1.00" stroke-linecap="round"/><line x1="540" y1="520" x2="1040" y2="655" stroke="#B8874A" stroke-opacity="0.16" stroke-width="0.90" stroke-linecap="round"/><line x1="690" y1="250" x2="1280" y2="525" stroke="#B8874A" stroke-opacity="0.15" stroke-width="0.90" stroke-linecap="round"/><line x1="920" y1="430" x2="1405" y2="820" stroke="#B8874A" stroke-opacity="0.16" stroke-width="0.90" stroke-linecap="round"/><line x1="1040" y1="655" x2="1530" y2="365" stroke="#B8874A" stroke-opacity="0.17" stroke-width="0.90" stroke-linecap="round"/><line x1="420" y1="770" x2="760" y2="590" stroke="#B8874A" stroke-opacity="0.17" stroke-width="0.90" stroke-linecap="round"/><line x1="1170" y1="285" x2="1340" y2="600" stroke="#B8874A" stroke-opacity="0.20" stroke-width="1.00" stroke-linecap="round"/></g>
  <g><circle cx="170" cy="680" r="11.00" fill="#B8874A" fill-opacity="0.07"/><circle cx="170" cy="680" r="5.00" fill="#B8874A" fill-opacity="0.90"/><circle cx="300" cy="310" r="12.10" fill="#B8874A" fill-opacity="0.07"/><circle cx="300" cy="310" r="5.50" fill="#B8874A" fill-opacity="0.90"/><circle cx="420" cy="770" r="9.90" fill="#B8874A" fill-opacity="0.07"/><circle cx="420" cy="770" r="4.50" fill="#B8874A" fill-opacity="0.90"/><circle cx="540" cy="520" r="13.20" fill="#B8874A" fill-opacity="0.07"/><circle cx="540" cy="520" r="6.00" fill="#B8874A" fill-opacity="0.90"/><circle cx="690" cy="250" r="8.80" fill="#B8874A" fill-opacity="0.07"/><circle cx="690" cy="250" r="4.00" fill="#B8874A" fill-opacity="0.90"/><circle cx="800" cy="875" r="9.90" fill="#B8874A" fill-opacity="0.07"/><circle cx="800" cy="875" r="4.50" fill="#B8874A" fill-opacity="0.90"/><circle cx="920" cy="430" r="14.30" fill="#B8874A" fill-opacity="0.07"/><circle cx="920" cy="430" r="6.50" fill="#B8874A" fill-opacity="0.90"/><circle cx="1040" cy="655" r="11.00" fill="#B8874A" fill-opacity="0.07"/><circle cx="1040" cy="655" r="5.00" fill="#B8874A" fill-opacity="0.90"/><circle cx="1170" cy="285" r="9.90" fill="#B8874A" fill-opacity="0.07"/><circle cx="1170" cy="285" r="4.50" fill="#B8874A" fill-opacity="0.90"/><circle cx="1280" cy="525" r="13.20" fill="#B8874A" fill-opacity="0.07"/><circle cx="1280" cy="525" r="6.00" fill="#B8874A" fill-opacity="0.90"/><circle cx="1405" cy="820" r="9.90" fill="#B8874A" fill-opacity="0.07"/><circle cx="1405" cy="820" r="4.50" fill="#B8874A" fill-opacity="0.90"/><circle cx="1530" cy="365" r="12.10" fill="#B8874A" fill-opacity="0.07"/><circle cx="1530" cy="365" r="5.50" fill="#B8874A" fill-opacity="0.90"/><circle cx="1645" cy="655" r="11.00" fill="#B8874A" fill-opacity="0.07"/><circle cx="1645" cy="655" r="5.00" fill="#B8874A" fill-opacity="0.90"/><circle cx="1010" cy="890" r="8.80" fill="#B8874A" fill-opacity="0.07"/><circle cx="1010" cy="890" r="4.00" fill="#B8874A" fill-opacity="0.90"/><circle cx="610" cy="840" r="9.90" fill="#B8874A" fill-opacity="0.07"/><circle cx="610" cy="840" r="4.50" fill="#B8874A" fill-opacity="0.90"/><circle cx="355" cy="545" r="8.80" fill="#B8874A" fill-opacity="0.07"/><circle cx="355" cy="545" r="4.00" fill="#B8874A" fill-opacity="0.90"/><circle cx="760" cy="590" r="12.10" fill="#B8874A" fill-opacity="0.07"/><circle cx="760" cy="590" r="5.50" fill="#B8874A" fill-opacity="0.90"/><circle cx="1340" cy="600" r="9.90" fill="#B8874A" fill-opacity="0.07"/><circle cx="1340" cy="600" r="4.50" fill="#B8874A" fill-opacity="0.90"/></g>
</svg>